<svg xmlns="http://www.w3.org/2000/svg" viewBox="0 0 80 80">
  <defs>
    <linearGradient id="g" x1="14.9658" y1="12" x2="79.3605" y2="29.1906" gradientUnits="userSpaceOnUse">
      <stop stop-color="#FAEC8C"/>
      <stop offset="1" stop-color="#FD6437"/>
    </linearGradient>
  </defs>
  <path d="M69 23.3885C69 29.6782 63.967 34.777 57.7585 34.777C51.5499 34.777 46.5169 29.6782 46.5169 23.3885C46.5169 17.0988 51.5499 12 57.7585 12C63.967 12 69 17.0988 69 23.3885Z" fill="url(#g)"/>
  <path d="M22.2415 12C28.4501 12 33.4831 17.0988 33.4831 23.3885C33.4831 24.0405 33.4288 24.6796 33.3249 25.3016C31.5414 37.1393 30.2383 40.4851 44.5437 45.9823C48.9834 47.9812 51.4498 52.2896 51.4498 56.4768C51.4498 62.4737 46.5169 68.4705 38.6243 67.9708C33.1981 66.9713 29.2517 63.4731 28.7585 56.9765C28.7585 55.6443 28.9415 54.3272 29.2504 53.0313C31.9809 41.5732 29.6427 37.8139 19.0155 34.3009C14.3792 32.8963 11 28.5423 11 23.3885C11 17.0988 16.033 12 22.2415 12Z" fill="url(#g)"/>
</svg>
